<svg width="14" height="20" viewBox="0 0 14 20" fill="none" xmlns="http://www.w3.org/2000/svg">
<path d="M11.2899 12.29L6.99994 16.59L2.70994 12.29C2.52164 12.1017 2.26624 11.9959 1.99994 11.9959C1.73364 11.9959 1.47825 12.1017 1.28994 12.29C1.10164 12.4783 0.99585 12.7337 0.99585 13C0.99585 13.2663 1.10164 13.5217 1.28994 13.71L6.28994 18.71C6.3829 18.8037 6.49351 18.8781 6.61536 18.9289C6.73722 18.9797 6.86793 19.0058 6.99994 19.0058C7.13195 19.0058 7.26266 18.9797 7.38452 18.9289C7.50638 18.8781 7.61698 18.8037 7.70994 18.71L12.7099 13.71C12.8032 13.6168 12.8771 13.5061 12.9276 13.3842C12.9781 13.2624 13.004 13.1319 13.004 13C13.004 12.8681 12.9781 12.7376 12.9276 12.6158C12.8771 12.4939 12.8032 12.3832 12.7099 12.29C12.6167 12.1968 12.506 12.1228 12.3842 12.0723C12.2624 12.0219 12.1318 11.9959 11.9999 11.9959C11.8681 11.9959 11.7375 12.0219 11.6157 12.0723C11.4939 12.1228 11.3832 12.1968 11.2899 12.29ZM2.70994 7.71L6.99994 3.41L11.2899 7.71C11.3829 7.80373 11.4935 7.87812 11.6154 7.92889C11.7372 7.97966 11.8679 8.0058 11.9999 8.0058C12.132 8.0058 12.2627 7.97966 12.3845 7.92889C12.5064 7.87812 12.617 7.80373 12.7099 7.71C12.8037 7.61704 12.8781 7.50644 12.9288 7.38458C12.9796 7.26272 13.0057 7.13201 13.0057 7C13.0057 6.86799 12.9796 6.73728 12.9288 6.61542C12.8781 6.49356 12.8037 6.38296 12.7099 6.29L7.70994 1.29C7.61698 1.19627 7.50638 1.12188 7.38452 1.07111C7.26266 1.02034 7.13195 0.994202 6.99994 0.994202C6.86793 0.994202 6.73722 1.02034 6.61536 1.07111C6.49351 1.12188 6.3829 1.19627 6.28994 1.29L1.28994 6.29C1.1967 6.38324 1.12274 6.49393 1.07228 6.61575C1.02182 6.73757 0.99585 6.86814 0.99585 7C0.99585 7.2663 1.10164 7.5217 1.28994 7.71C1.47825 7.8983 1.73364 8.00409 1.99994 8.00409C2.26624 8.00409 2.52164 7.8983 2.70994 7.71Z" fill="#F5F5FF"/>
</svg>
