<svg xmlns="http://www.w3.org/2000/svg" width="23" height="19" viewBox="0 0 23 19">
  <path id="twitter" d="M20.636,52.817c.015.208.015.416.015.623,0,6.338-4.743,13.641-13.412,13.641A13.159,13.159,0,0,1,0,64.93a9.589,9.589,0,0,0,1.138.059,9.34,9.34,0,0,0,5.852-2.048,4.733,4.733,0,0,1-4.407-3.325,5.847,5.847,0,0,0,.89.074,4.907,4.907,0,0,0,1.24-.163,4.776,4.776,0,0,1-3.78-4.705v-.059a4.687,4.687,0,0,0,2.131.609,4.856,4.856,0,0,1-1.459-6.413,13.326,13.326,0,0,0,9.72,5.017,5.5,5.5,0,0,1-.117-1.1,4.753,4.753,0,0,1,4.714-4.795A4.666,4.666,0,0,1,19.366,49.6a9.186,9.186,0,0,0,2.992-1.158,4.768,4.768,0,0,1-2.072,2.642A9.325,9.325,0,0,0,23,50.338,10.229,10.229,0,0,1,20.636,52.817Z" transform="translate(0 -48.082)" fill="#fff"/>
</svg>
